<svg xmlns="http://www.w3.org/2000/svg" width="7678" height="1440" viewBox="0 0 7678 1440" version="1.1"><path d="M 588 145.568 C 577.275 151.817, 566.250 158.250, 563.500 159.865 C 560.750 161.480, 543.875 171.214, 526 181.496 C 508.125 191.778, 487.425 203.704, 480 207.998 C 472.575 212.291, 441.975 229.956, 412 247.252 C 382.025 264.548, 323.975 298.059, 283 321.720 C 242.025 345.381, 199.950 369.662, 189.500 375.677 C 127.022 411.639, 113.967 419.401, 114.296 420.387 C 114.497 420.990, 143.200 440.127, 178.081 462.913 C 212.961 485.699, 276.818 527.419, 319.985 555.626 L 398.470 606.910 404.485 603.562 C 407.793 601.722, 426.925 591.568, 447 581 C 467.075 570.432, 486.303 560.225, 489.730 558.318 L 495.959 554.851 496.230 534.771 L 496.500 514.691 553.097 482.365 L 609.695 450.039 658.097 476.148 C 684.719 490.508, 710.456 504.337, 715.291 506.879 L 724.081 511.500 723.560 520.500 C 723.273 525.450, 722.917 535.777, 722.769 543.450 L 722.500 557.399 767.500 582.195 C 792.250 595.833, 813.013 606.801, 813.639 606.570 C 814.265 606.338, 829.467 596.552, 847.420 584.824 C 865.374 573.096, 888.036 558.294, 897.781 551.930 C 1028.133 466.814, 1101.747 418.564, 1102.838 417.525 C 1103.940 416.477, 1103.144 415.630, 1098.338 412.734 C 1095.127 410.798, 1028.150 372.429, 949.500 327.468 C 870.850 282.507, 762.553 220.583, 708.839 189.860 C 655.125 159.137, 610.350 134.046, 609.339 134.103 C 608.328 134.160, 598.725 139.319, 588 145.568 M 2470.754 535.514 L 2470.500 673.027 2465.181 666.053 C 2443.474 637.589, 2403.060 616.404, 2361.823 611.873 C 2345.012 610.026, 2313.256 611.333, 2298 614.499 C 2219.813 630.730, 2165.820 689.310, 2152.835 772 C 2151.027 783.512, 2151.028 829.493, 2152.836 841 C 2156.430 863.880, 2161.998 881.238, 2172.563 902.500 C 2181.355 920.194, 2189.990 932.633, 2202.932 946.247 C 2229.144 973.821, 2259.311 990.424, 2298 998.571 C 2308.585 1000.800, 2313.884 1001.283, 2332.581 1001.718 C 2356.709 1002.280, 2365.399 1001.522, 2381.500 997.447 C 2416.396 988.615, 2446.063 970.852, 2464.041 948.026 L 2470.500 939.824 2470.766 966.412 L 2471.033 993 2507.016 993 L 2543 993 2543 695.500 L 2543 398 2507.004 398 L 2471.007 398 2470.754 535.514 M 6142 695.500 L 6142 993 6177.495 993 L 6212.990 993 6213.245 896.982 L 6213.500 800.964 6299.411 896.982 L 6385.322 993 6436.369 993 L 6487.416 993 6483.382 988.750 C 6481.162 986.413, 6466.998 971.225, 6451.906 955 C 6396.963 895.934, 6371.689 868.784, 6338.428 833.097 C 6319.768 813.076, 6303.172 795.119, 6301.549 793.192 L 6298.598 789.690 6311.782 777.095 C 6319.033 770.168, 6358.048 732.325, 6398.482 693 L 6471.998 621.500 6422.249 621.232 L 6372.500 620.965 6292.804 701.232 L 6213.107 781.500 6213.054 589.750 L 6213 398 6177.500 398 L 6142 398 6142 695.500 M 2011.500 434.659 C 1997.058 437.742, 1982.874 447.826, 1975.656 460.143 C 1968.277 472.736, 1966.410 489.080, 1970.855 502.190 C 1983.426 539.270, 2028.759 551.112, 2056.413 524.541 C 2067.513 513.876, 2073 501.291, 2073 486.500 C 2073 457.596, 2048.918 433.633, 2020.356 434.116 C 2016.585 434.180, 2012.600 434.424, 2011.500 434.659 M 3624.112 435.581 C 3616.012 437.759, 3607.213 442.855, 3600.939 449 C 3589.599 460.107, 3585.042 470.857, 3585.042 486.500 C 3585.042 498.204, 3587.377 506.209, 3593.465 515.381 C 3600.671 526.237, 3614.178 535.440, 3626.737 538.051 C 3634.212 539.604, 3646.903 538.727, 3654.200 536.153 C 3669.697 530.686, 3683.432 515.958, 3687.462 500.485 C 3689.431 492.924, 3689.431 480.076, 3687.462 472.515 C 3683.041 455.543, 3667.236 440.162, 3649.458 435.531 C 3642.194 433.639, 3631.252 433.660, 3624.112 435.581 M 1280 714.500 L 1280 993 1318.500 993 L 1357 993 1357.068 764.250 C 1357.108 627.707, 1357.498 536.306, 1358.036 537.500 C 1358.531 538.600, 1363.174 549.850, 1368.354 562.500 C 1373.534 575.150, 1382.390 596.750, 1388.036 610.500 C 1393.681 624.250, 1402.070 644.725, 1406.677 656 C 1411.285 667.275, 1415.930 678.525, 1417 681 C 1418.070 683.475, 1422.805 694.950, 1427.523 706.500 C 1436.620 728.770, 1443.460 745.448, 1463.002 793 C 1469.669 809.225, 1478.725 831.275, 1483.126 842 C 1487.527 852.725, 1495.571 872.300, 1501.001 885.500 C 1506.431 898.700, 1514.750 918.950, 1519.488 930.500 C 1524.225 942.050, 1531.957 960.837, 1536.670 972.250 L 1545.239 993 1570.870 992.980 L 1596.500 992.959 1613.383 951.730 C 1622.668 929.053, 1634.060 901.275, 1638.698 890 C 1650.642 860.962, 1660.684 836.515, 1676.490 798 C 1692.873 758.078, 1720.182 691.603, 1730.511 666.500 C 1734.585 656.600, 1747.985 623.975, 1760.289 594 C 1772.593 564.025, 1783.074 538.600, 1783.580 537.500 C 1784.144 536.274, 1784.598 624.034, 1784.752 764.250 L 1785.004 993 1823.002 993 L 1861 993 1861 714.492 L 1861 435.983 1804.310 436.242 L 1747.620 436.500 1745.435 442 C 1744.233 445.025, 1725.812 489.350, 1704.500 540.500 C 1683.188 591.650, 1664.682 636.087, 1663.375 639.250 C 1662.069 642.413, 1659.875 647.700, 1658.500 651 C 1657.125 654.300, 1654.935 659.587, 1653.633 662.750 C 1652.331 665.913, 1634.971 707.650, 1615.055 755.500 C 1595.139 803.350, 1577.487 845.763, 1575.828 849.750 C 1574.170 853.737, 1572.237 857, 1571.532 857 C 1570.809 857, 1566.291 847.532, 1561.154 835.250 C 1556.151 823.288, 1547.143 801.800, 1541.136 787.500 C 1535.129 773.200, 1524.364 747.550, 1517.214 730.500 C 1510.063 713.450, 1497.582 683.750, 1489.478 664.500 C 1481.374 645.250, 1473.728 627.025, 1472.486 624 C 1471.244 620.975, 1466.627 609.950, 1462.226 599.500 C 1457.826 589.050, 1445.352 559.350, 1434.508 533.500 C 1423.663 507.650, 1410.984 477.500, 1406.333 466.500 C 1401.682 455.500, 1396.942 444.137, 1395.800 441.250 L 1393.722 436 1336.861 436 L 1280 436 1280 714.500 M 4743 714.500 L 4743 993 4781.500 993 L 4820 993 4820.068 764.250 C 4820.108 627.936, 4820.499 536.308, 4821.035 537.500 C 4821.529 538.600, 4825.797 548.950, 4830.518 560.500 C 4839.624 582.780, 4846.479 599.492, 4866 647 C 4872.667 663.225, 4881.531 684.825, 4885.698 695 C 4889.865 705.175, 4894.501 716.425, 4896 720 C 4897.499 723.575, 4902.134 734.825, 4906.299 745 C 4916.190 769.157, 4928.011 797.972, 4941.991 832 C 4948.205 847.125, 4957.077 868.725, 4961.707 880 C 4966.337 891.275, 4974.576 911.300, 4980.014 924.500 C 4985.453 937.700, 4993.948 958.400, 4998.891 970.500 L 5007.880 992.500 5033.690 992.752 L 5059.500 993.004 5062.405 985.752 C 5064.905 979.508, 5074.549 956.010, 5117.501 851.500 C 5127.864 826.285, 5139.986 796.753, 5151.979 767.500 C 5157.617 753.750, 5167.514 729.675, 5173.974 714 C 5185.017 687.205, 5191.780 670.740, 5209.508 627.500 C 5213.566 617.600, 5220.682 600.275, 5225.320 589 C 5229.958 577.725, 5236.573 561.525, 5240.020 553 C 5243.467 544.475, 5246.673 537.073, 5247.144 536.550 C 5247.619 536.023, 5248 637.373, 5248 764.300 L 5248 993 5286 993 L 5324 993 5324 714.492 L 5324 435.983 5267.351 436.242 L 5210.703 436.500 5184.349 500 C 5169.854 534.925, 5155.998 568.225, 5153.557 574 C 5147.960 587.243, 5126.584 638.590, 5077.999 755.500 C 5056.971 806.100, 5038.863 849.638, 5037.760 852.250 C 5036.656 854.862, 5035.192 857, 5034.505 857 C 5033.818 857, 5030.001 849.237, 5026.023 839.750 C 5022.044 830.263, 5014.060 811.250, 5008.280 797.500 C 5002.500 783.750, 4996.752 770.025, 4995.508 767 C 4993.281 761.589, 4986.696 745.920, 4957.476 676.500 C 4949.373 657.250, 4941.676 638.913, 4940.372 635.750 C 4935.509 623.962, 4933.028 618.026, 4925.114 599.250 C 4915.645 576.785, 4904.930 551.303, 4892.001 520.500 C 4886.922 508.400, 4878.039 487.250, 4872.260 473.500 C 4866.482 459.750, 4860.609 445.688, 4859.209 442.250 L 4856.664 436 4799.832 436 L 4743 436 4743 714.500 M 1127 463.997 C 1125.625 465.035, 1094.125 485.991, 1057 510.567 C 926.317 597.077, 895.260 617.660, 870 634.500 L 844.500 651.500 844.751 668 C 844.889 677.075, 845.279 696.469, 845.619 711.098 L 846.237 737.697 862.868 747.500 C 872.016 752.892, 882.949 759.357, 887.165 761.867 L 894.830 766.430 895.402 777.465 C 895.716 783.534, 896.256 809.701, 896.600 835.614 L 897.227 882.729 888.863 887.724 C 884.264 890.472, 873.975 896.550, 866 901.230 C 835.085 919.374, 815.852 930.688, 799.740 940.206 L 782.980 950.106 768.655 942.053 C 760.776 937.624, 754.035 934, 753.675 934 C 753.096 934, 726.573 948.690, 664.512 983.385 C 654.069 989.223, 645.069 994, 644.512 994 C 643.553 994, 643.450 1297.783, 644.409 1298.742 C 644.623 1298.956, 660.481 1290.264, 679.649 1279.425 C 698.817 1268.586, 726.200 1253.100, 740.500 1245.010 C 754.800 1236.920, 779.100 1223.177, 794.500 1214.471 C 809.900 1205.765, 838.925 1189.353, 859 1178 C 879.075 1166.647, 908.100 1150.236, 923.500 1141.531 C 938.900 1132.825, 958.025 1122.005, 966 1117.485 C 973.975 1112.966, 994.675 1101.253, 1012 1091.457 C 1029.325 1081.661, 1060.150 1064.222, 1080.500 1052.705 C 1100.850 1041.188, 1120.763 1029.930, 1124.750 1027.687 L 1132 1023.610 1132 742.805 C 1132 518.798, 1131.747 462.011, 1130.750 462.056 C 1130.063 462.086, 1128.375 462.960, 1127 463.997 M 86.506 465.137 C 86.221 465.886, 86.103 591.551, 86.244 744.391 L 86.500 1022.282 140 1052.744 C 169.425 1069.499, 213.075 1094.355, 237 1107.981 C 312.309 1150.872, 380.574 1189.742, 407 1204.778 C 436.609 1221.626, 502.866 1259.348, 551.138 1286.842 C 569.639 1297.379, 585.278 1306, 585.891 1306 C 586.708 1306, 586.939 1264.726, 586.753 1151.864 L 586.500 997.728 556.500 981.592 C 540 972.718, 512.415 957.887, 495.200 948.636 L 463.900 931.816 451.213 939.046 L 438.526 946.276 432.513 943.129 C 404.880 928.664, 329.617 886.203, 329.452 884.985 C 329.339 884.152, 329.078 855.845, 328.873 822.080 L 328.500 760.689 349.658 747.594 L 370.816 734.500 371.380 728 C 371.690 724.425, 372.231 706.121, 372.582 687.325 L 373.221 653.151 231.884 558.922 C 154.148 507.097, 89.754 464.487, 88.786 464.234 C 87.817 463.980, 86.791 464.387, 86.506 465.137 M 575.282 497.804 C 556.462 508.694, 540.796 517.871, 540.469 518.197 C 540.143 518.524, 543.166 520.583, 547.188 522.774 C 589.617 545.884, 607.220 555.097, 608.429 554.824 C 610.356 554.390, 680.937 515.638, 680.963 515 C 680.974 514.725, 673.449 510.616, 664.241 505.869 C 655.034 501.122, 639.117 492.910, 628.871 487.619 C 618.625 482.329, 610.075 478.001, 609.871 478.003 C 609.667 478.004, 594.102 486.915, 575.282 497.804 M 4249 567.487 L 4249 620 4208 620 L 4167 620 4167 651 L 4167 682 4207.947 682 L 4248.893 682 4249.284 798.250 C 4249.562 881.076, 4250.016 916.800, 4250.864 922.500 C 4254.235 945.181, 4260.784 960.352, 4272.646 972.962 C 4287.732 988.998, 4306.417 997.768, 4332.493 1001.050 C 4345.477 1002.685, 4381.434 1001.782, 4394 999.505 C 4405.276 997.463, 4417.234 993.811, 4421.750 991.030 L 4425 989.029 4425 957.015 C 4425 939.407, 4424.612 925, 4424.138 925 C 4423.664 925, 4420.181 926.404, 4416.397 928.120 C 4406.859 932.444, 4391.457 935.144, 4375.500 935.288 C 4355.735 935.467, 4346.389 932.494, 4336.991 923.041 C 4330.794 916.809, 4326.912 909.537, 4323.734 898.207 C 4321.592 890.571, 4321.569 889.545, 4321.235 786.250 L 4320.898 682 4371.449 682 L 4422 682 4422 651 L 4422 620 4371.509 620 L 4321.018 620 4320.759 567.750 L 4320.500 515.500 4284.750 515.237 L 4249 514.975 4249 567.487 M 7014.450 516.269 C 7014.183 516.966, 7014.084 540.591, 7014.232 568.769 L 7014.500 620 6973.750 620 L 6933 620 6933 651 L 6933 682 6973.500 682 L 7014 682 7014.012 776.750 C 7014.028 898.254, 7014.701 919.499, 7019.091 937 C 7028.173 973.210, 7055.417 995.569, 7097.033 1000.969 C 7101.140 1001.502, 7112.464 1001.952, 7122.199 1001.969 C 7148.419 1002.015, 7170.454 998.669, 7184.320 992.537 L 7190 990.025 7190 957.406 C 7190 931.684, 7189.736 924.902, 7188.750 925.334 C 7172.650 932.395, 7158.609 935.265, 7140 935.300 C 7120.520 935.337, 7111.032 932.087, 7101.794 922.211 C 7095.655 915.648, 7091.215 906.596, 7088.709 895.538 C 7086.734 886.818, 7086.648 882.904, 7086.264 784.250 L 7085.866 682 7136.933 682 L 7188 682 7188 651 L 7188 620 7137 620 L 7086 620 7086 567.500 L 7086 515 7050.469 515 C 7022.689 515, 7014.831 515.277, 7014.450 516.269 M 523.286 541.418 C 524.966 542.693, 525.032 544.985, 524.397 580.137 L 523.722 617.500 557.799 635.827 C 576.540 645.907, 592.742 654.381, 593.802 654.658 C 595.662 655.145, 595.751 654.123, 596.379 624.831 C 596.737 608.149, 597.132 590.900, 597.257 586.500 L 597.484 578.500 562 560.273 C 542.483 550.249, 526.362 541.586, 526.174 541.023 C 525.987 540.461, 524.858 540.014, 523.667 540.032 C 521.631 540.062, 521.608 540.145, 523.286 541.418 M 689.450 540.857 C 688.928 541.328, 673.200 549.699, 654.500 559.459 C 635.800 569.219, 620.074 577.607, 619.554 578.099 C 618.968 578.652, 619.253 579.471, 620.299 580.246 C 621.827 581.379, 622.016 585.100, 622.246 618.682 L 622.500 655.863 658.316 636.682 L 694.132 617.500 693.552 589 C 692.876 555.746, 692.089 540, 691.104 540 C 690.717 540, 689.972 540.386, 689.450 540.857 M 723.655 597.239 C 723.301 601.782, 722.956 608.425, 722.888 612 C 722.678 622.987, 722.249 623.875, 715 628.321 C 711.425 630.514, 685.857 645.968, 658.181 662.665 L 607.863 693.021 552.681 662.210 L 497.500 631.399 497.229 611.200 C 497.080 600.090, 496.608 591, 496.179 591 C 495.751 591, 494.972 591.386, 494.450 591.859 C 493.927 592.331, 473.700 602.742, 449.500 614.996 C 425.300 627.249, 404.938 637.718, 404.250 638.260 C 403.288 639.018, 403 648.179, 403 677.956 C 403 699.247, 403.254 716.920, 403.564 717.230 C 403.874 717.541, 411.536 714.241, 420.591 709.897 C 429.646 705.554, 437.605 702.007, 438.277 702.016 C 438.950 702.025, 464.025 715.708, 494 732.424 L 548.500 762.815 548.758 822.925 L 549.016 883.035 540.758 888.376 C 536.216 891.314, 524.856 898.731, 515.513 904.859 C 506.170 910.987, 497.957 916, 497.263 916 C 496.568 916, 496 916.450, 496 917 C 496 917.550, 496.743 918, 497.650 918 C 498.558 918, 512.171 924.836, 527.900 933.190 C 543.630 941.545, 568.200 954.592, 582.500 962.185 C 596.800 969.777, 609.109 975.992, 609.852 975.995 C 610.596 975.998, 621.846 970.209, 634.852 963.130 C 647.859 956.052, 669.975 944.071, 684 936.505 C 698.025 928.940, 712.087 921.352, 715.250 919.644 C 718.413 917.936, 721 916.275, 721 915.954 C 721 915.632, 709.521 908.027, 695.492 899.053 L 669.984 882.737 670.242 825.642 L 670.500 768.546 691.177 755.890 C 702.549 748.929, 721.449 737.399, 733.177 730.267 C 744.904 723.135, 759.450 714.244, 765.500 710.509 C 771.550 706.774, 776.974 703.706, 777.554 703.692 C 778.133 703.678, 786.588 707.117, 796.342 711.333 C 806.096 715.550, 814.514 719, 815.050 719 C 815.669 719, 815.928 704.949, 815.762 680.405 L 815.500 641.810 775 618.299 C 752.725 605.369, 732.205 593.481, 729.399 591.883 L 724.298 588.977 723.655 597.239 M 2827.500 612.017 C 2804.037 615.016, 2776.376 625.576, 2754.500 639.886 C 2747.525 644.449, 2730.587 660.447, 2723.676 669 L 2720.039 673.500 2720.020 646.750 L 2720 620 2684 620 L 2648 620 2648 917.500 L 2648 1215 2683.996 1215 L 2719.993 1215 2720.246 1077.355 L 2720.500 939.709 2726.368 947.370 C 2744.164 970.604, 2774.791 989.321, 2808.130 997.336 C 2826.132 1001.664, 2833.312 1002.291, 2858.316 1001.719 C 2878.233 1001.264, 2883.191 1000.823, 2893.500 998.592 C 2942.728 987.937, 2982.097 961.550, 3008.435 921.555 C 3023.983 897.947, 3034.292 869.072, 3039.168 835.481 C 3041.319 820.655, 3040.785 787.103, 3038.148 771.500 C 3024.029 687.953, 2971.231 630.912, 2892.781 614.451 C 2882.133 612.216, 2877.441 611.824, 2857.500 611.498 C 2844.850 611.292, 2831.350 611.525, 2827.500 612.017 M 3282.966 612.002 C 3272.609 613.191, 3254.734 617.414, 3243.154 621.406 C 3181.129 642.793, 3133.211 694.422, 3116.595 757.769 C 3109.152 786.142, 3109.100 825.807, 3116.468 854.872 C 3134.867 927.457, 3193.022 982.599, 3268 998.553 C 3278.804 1000.852, 3283.634 1001.282, 3303.601 1001.720 C 3328.535 1002.268, 3337.290 1001.545, 3355 997.475 C 3393.191 988.700, 3426.850 969.629, 3454.027 941.367 C 3503.535 889.885, 3520.547 814.790, 3498.348 745.729 C 3493.993 732.178, 3480.927 706.218, 3472.697 694.762 C 3452.427 666.545, 3430.265 647.494, 3399.771 632.070 C 3382.409 623.288, 3368.557 618.398, 3349.862 614.450 C 3338.994 612.156, 3334.661 611.798, 3314 611.489 C 3301.075 611.296, 3287.110 611.527, 3282.966 612.002 M 3958 611.628 C 3914.163 617.159, 3877.178 639.489, 3859.628 671.023 L 3856.023 677.500 3856.011 648.750 L 3856 620 3820 620 L 3784 620 3784 806.500 L 3784 993 3819.962 993 L 3855.925 993 3856.298 883.750 C 3856.695 767.263, 3856.499 772.216, 3861.501 752.691 C 3867.712 728.445, 3883.138 705.375, 3901.140 693.407 C 3922.962 678.900, 3955.641 673.859, 3983.909 680.638 C 4009.365 686.744, 4028.898 705.704, 4037.853 733 C 4042.896 748.375, 4042.988 750.927, 4042.994 876.250 L 4043 993 4079.031 993 L 4115.063 993 4114.743 859.750 L 4114.423 726.500 4111.726 714.357 C 4100.971 665.939, 4073.119 633.058, 4030.874 618.904 C 4013.120 612.956, 4006.348 611.914, 3983 611.535 C 3971.175 611.344, 3959.925 611.385, 3958 611.628 M 5565.500 612.170 C 5561.100 612.669, 5551.425 614.411, 5544 616.039 C 5506.277 624.313, 5475.145 639.468, 5448.015 662.764 L 5444.529 665.756 5464.765 686.756 C 5475.895 698.306, 5485.667 708.308, 5486.480 708.983 C 5487.705 710, 5490.283 708.483, 5501.513 700.136 C 5521.123 685.559, 5532.314 679.752, 5551.979 673.949 C 5565.921 669.835, 5575.570 668.602, 5593.500 668.644 C 5605.886 668.673, 5611.743 669.160, 5619.430 670.798 C 5647.917 676.868, 5669.750 696.308, 5678.620 723.500 C 5680.784 730.132, 5681.318 734.003, 5681.747 746.140 L 5682.265 760.781 5637.882 761.284 C 5590.665 761.819, 5577.182 762.798, 5551 767.593 C 5501.481 776.663, 5464.413 796.889, 5443.675 826.156 C 5421.977 856.777, 5418.761 906.691, 5436.307 940.464 C 5452.645 971.909, 5479.649 990.524, 5522.273 999.724 C 5529.023 1001.181, 5535.257 1001.493, 5557 1001.459 C 5583.245 1001.418, 5583.633 1001.387, 5597.336 998.198 C 5633.491 989.786, 5657.387 974.434, 5678.621 945.977 L 5685.500 936.758 5686.115 951.129 C 5686.453 959.033, 5687.062 971.688, 5687.467 979.250 L 5688.205 993 5720.102 993 L 5752 993 5751.964 989.750 C 5751.945 987.962, 5751.451 982, 5750.867 976.500 C 5750.221 970.423, 5749.523 917.262, 5749.086 841 L 5748.368 715.500 5745.758 705.500 C 5742.483 692.952, 5737.518 681.116, 5731.369 671.196 C 5725.746 662.126, 5708.385 644.230, 5699.318 638.158 C 5678.957 624.522, 5649.982 614.699, 5622.128 611.989 C 5610.255 610.833, 5576.316 610.942, 5565.500 612.170 M 6014.500 612.392 C 5976.723 619.588, 5941.418 643.605, 5926.143 672.500 L 5923.500 677.500 5923.235 648.750 L 5922.969 620 5886.985 620 L 5851 620 5851 806.500 L 5851 993 5887 993 L 5923 993 5923 893.106 C 5923 830.378, 5923.392 789.359, 5924.053 782.856 C 5929.279 731.461, 5951.915 702.060, 5995 690.706 C 6005.830 687.852, 6007.636 687.671, 6026 687.588 C 6043.436 687.509, 6046.387 687.744, 6053.884 689.806 C 6058.495 691.074, 6062.883 691.875, 6063.634 691.587 C 6064.670 691.189, 6065.019 688.340, 6065.077 679.781 C 6065.120 673.577, 6065.721 656.800, 6066.413 642.500 C 6067.106 628.200, 6067.363 616.139, 6066.985 615.699 C 6063.768 611.949, 6028.493 609.727, 6014.500 612.392 M 6693.966 612.067 C 6656.597 616.037, 6615.636 635.196, 6588.098 661.584 C 6566.748 682.043, 6551.886 704.076, 6541.098 731.262 C 6519.603 785.429, 6523.846 856.503, 6551.643 907.925 C 6570.154 942.168, 6595.759 966.496, 6631.056 983.378 C 6646.587 990.806, 6658.239 994.702, 6676.500 998.571 C 6688.136 1001.037, 6692.093 1001.373, 6714.202 1001.774 C 6741.037 1002.261, 6752.053 1001.420, 6771.049 997.434 C 6799.745 991.413, 6825.711 979.860, 6847.678 963.337 C 6857.526 955.931, 6872.170 941.960, 6879.582 932.900 C 6884.493 926.897, 6885.115 925.691, 6883.909 924.514 C 6883.134 923.758, 6871.070 914.386, 6857.099 903.687 L 6831.699 884.234 6819.730 896.617 C 6800.678 916.326, 6783.765 928.101, 6765.920 934.080 C 6736.916 943.797, 6698.286 940.616, 6667.500 925.976 C 6631.404 908.810, 6607.329 876.366, 6604.371 840.902 L 6603.713 833.007 6753.106 832.753 L 6902.500 832.500 6902.359 810 C 6902.154 777.306, 6898.917 755.148, 6890.500 728.827 C 6869.783 664.040, 6814.642 618.808, 6748.144 612.052 C 6736.391 610.858, 6705.261 610.866, 6693.966 612.067 M 7379.328 612.095 C 7345.567 616.029, 7312.030 630.970, 7292 651 C 7271.517 671.483, 7262 695.076, 7262 725.372 C 7262 744.441, 7264.436 756.402, 7270.988 769.500 C 7287.803 803.115, 7316.849 818.837, 7393 835.545 C 7445.222 847.003, 7466.421 863.353, 7464.789 890.915 C 7464.230 900.336, 7461.713 906.242, 7455.321 913.126 C 7441.794 927.693, 7419.216 935.373, 7390 935.345 C 7369.897 935.326, 7354.110 931.427, 7339.806 922.946 C 7330.882 917.655, 7315.090 905.764, 7306.731 898.041 C 7301.986 893.658, 7299.593 892.067, 7298.731 892.724 C 7298.054 893.239, 7286.025 903.041, 7272 914.506 C 7257.975 925.971, 7246.320 935.491, 7246.099 935.660 C 7245.879 935.830, 7248.224 939.266, 7251.311 943.296 C 7258.361 952.501, 7274.349 968.010, 7283.402 974.426 C 7302.688 988.095, 7329.033 997.229, 7359.974 1000.974 C 7372.305 1002.467, 7408.593 1002.217, 7421 1000.553 C 7475.709 993.220, 7512.558 970.530, 7531.851 932.297 C 7542.755 910.688, 7544.881 875.316, 7536.796 850 C 7528.975 825.510, 7510.796 805.804, 7484.623 793.445 C 7466.226 784.757, 7443.171 777.951, 7410.002 771.414 C 7399.829 769.409, 7387.679 766.433, 7383.002 764.800 C 7360.683 757.006, 7343.272 743.334, 7340.036 731.059 C 7337.134 720.054, 7338.044 709.213, 7342.521 701.442 C 7354.026 681.474, 7392.866 671.974, 7426.500 680.901 C 7441.296 684.829, 7455.072 693.211, 7467.772 706.013 C 7472.129 710.406, 7476.001 714, 7476.376 714 C 7476.751 714, 7479.857 711.840, 7483.279 709.201 C 7486.700 706.561, 7498.609 697.523, 7509.743 689.117 C 7520.876 680.711, 7530.258 673.392, 7530.591 672.852 C 7530.925 672.313, 7529.646 669.538, 7527.749 666.686 C 7517.198 650.818, 7501.925 637.428, 7484.276 628.570 C 7468.990 620.899, 7445.496 614.054, 7427.500 612.029 C 7417.018 610.850, 7389.695 610.887, 7379.328 612.095 M 1985 806.500 L 1985 993 2021 993 L 2057 993 2057 806.500 L 2057 620 2021 620 L 1985 620 1985 806.500 M 3601 806.500 L 3601 993 3637 993 L 3673 993 3673 806.500 L 3673 620 3637 620 L 3601 620 3601 806.500 M 6707.500 668.630 C 6662.858 673.459, 6627.578 700.167, 6610.577 742.002 C 6607.710 749.058, 6604 765.643, 6604 771.407 L 6604 775 6715 775 L 6826 775 6825.997 772.250 C 6825.991 766.157, 6823.662 750.967, 6821.388 742.191 C 6816.646 723.890, 6809.627 710.777, 6798.120 698.725 C 6783.737 683.659, 6765.800 674.265, 6744.192 670.481 C 6735.488 668.956, 6714.345 667.890, 6707.500 668.630 M 2336.883 678.026 C 2294.903 681.866, 2261.233 703.323, 2243.262 737.687 C 2237.281 749.125, 2233.029 761.279, 2229.859 776 C 2227.963 784.808, 2227.591 789.642, 2227.549 806 C 2227.507 822.781, 2227.832 827.104, 2229.881 837 C 2240.942 890.419, 2274.508 924.505, 2325 933.594 C 2337.640 935.869, 2360.315 935.891, 2373 933.640 C 2423.337 924.708, 2457.608 890.197, 2468.212 837.763 C 2471.532 821.347, 2471.511 791.554, 2468.167 775 C 2465.836 763.456, 2460.922 748.823, 2456.246 739.500 C 2446.189 719.448, 2427.645 700.961, 2407.190 690.596 C 2387.815 680.778, 2360.392 675.875, 2336.883 678.026 M 2829.883 678.026 C 2796.779 681.054, 2767.906 695.425, 2749.055 718.258 C 2721.206 751.987, 2712.269 808.074, 2727.389 854.230 C 2739.631 891.603, 2763.893 916.699, 2799.500 928.820 C 2813.031 933.426, 2825.306 935.302, 2842 935.315 C 2865.013 935.332, 2882.320 931.443, 2900.415 922.187 C 2941.101 901.376, 2964 859.714, 2964 806.500 C 2964 739.668, 2927.020 690.837, 2868.278 680.101 C 2855.209 677.713, 2841.440 676.969, 2829.883 678.026 M 3296.883 678.033 C 3257.529 681.602, 3224.976 701.091, 3206.160 732.347 C 3182.871 771.033, 3180.982 830.904, 3201.738 872.500 C 3212.622 894.311, 3230.738 912.429, 3252.500 923.268 C 3279.693 936.811, 3320.031 939.309, 3350.500 929.336 C 3379.670 919.788, 3403.268 899.538, 3416.812 872.434 C 3421.401 863.250, 3426.522 847.669, 3428.621 836.500 C 3430.064 828.821, 3430.500 821.858, 3430.500 806.500 C 3430.500 783.566, 3428.958 772.886, 3423.292 756.566 C 3417.073 738.653, 3409.421 725.660, 3398.026 713.664 C 3381.289 696.044, 3361.616 685.342, 3337 680.466 C 3323.605 677.812, 3309.047 676.929, 3296.883 678.033 M 603.500 727.634 C 597.104 729.221, 594.204 730.691, 590.183 734.382 C 584.114 739.954, 582.049 744.805, 582.022 753.554 C 581.973 769.170, 592.823 780, 608.518 780 C 615.171 780, 624.696 775.399, 628.577 770.310 C 638.996 756.650, 633.840 735.974, 618.405 729.525 C 614.468 727.880, 606.554 726.876, 603.500 727.634 M 745.932 748.913 C 728.094 759.314, 713.382 768.427, 713.238 769.163 C 713.094 769.898, 714.669 771.426, 716.738 772.557 C 718.807 773.688, 734.126 782.354, 750.781 791.815 L 781.061 809.017 815.531 790.898 C 834.489 780.932, 850 772.425, 850 771.994 C 850 771.562, 836.388 763.189, 819.750 753.388 C 803.112 743.586, 787.499 734.314, 785.054 732.783 C 782.609 731.252, 780.103 730, 779.486 730 C 778.868 730, 763.769 738.511, 745.932 748.913 M 405.243 751.341 C 386.402 761.307, 371.102 769.794, 371.243 770.201 C 371.385 770.608, 384.325 778.068, 400 786.779 C 415.675 795.489, 430.311 803.667, 432.525 804.951 L 436.550 807.285 460.025 794.803 C 472.936 787.938, 487.663 780.144, 492.750 777.483 C 497.837 774.823, 502 772.341, 502 771.968 C 502 771.350, 440.333 732.855, 439.752 733.111 C 439.613 733.172, 424.085 741.375, 405.243 751.341 M 829.500 809.998 L 793.500 831.771 793.738 843.636 C 794.881 900.736, 795.243 909, 796.597 909 C 797.350 909, 813.387 900.477, 832.233 890.060 L 866.500 871.120 866.761 829.560 C 866.905 806.702, 866.680 788.051, 866.261 788.113 C 865.842 788.175, 849.300 798.024, 829.500 809.998 M 491 808.125 C 474.225 818.088, 458.700 827.441, 456.500 828.908 L 452.500 831.576 452.238 870.476 C 452.094 891.871, 452.319 909.705, 452.738 910.106 C 453.157 910.508, 457.325 908.551, 462 905.757 C 466.675 902.963, 474.100 898.572, 478.500 896 C 508.892 878.230, 521.712 870.569, 523.124 869.336 C 524.545 868.096, 524.842 863.132, 525.490 829.839 C 526.255 790.543, 526.219 790.060, 522.500 790.020 C 521.950 790.014, 507.775 798.161, 491 808.125 M 352.616 791.813 C 352.369 792.212, 351.898 804.230, 351.568 818.519 C 351.238 832.809, 350.721 849.934, 350.418 856.575 L 349.867 868.649 384.173 887.966 C 403.042 898.590, 419.251 907.764, 420.194 908.353 C 421.137 908.942, 422.105 909.216, 422.345 908.962 C 422.585 908.708, 422.943 890.762, 423.141 869.083 L 423.500 829.666 389.914 811.003 C 354.135 791.121, 353.307 790.695, 352.616 791.813 M 695.548 825.250 C 695.938 842.438, 696.537 859.383, 696.879 862.906 L 697.500 869.312 730.894 889.178 C 749.261 900.105, 764.511 908.822, 764.783 908.550 C 765.671 907.662, 767.185 830.784, 766.331 829.989 C 764.993 828.745, 696.936 794, 695.837 794 C 695.178 794, 695.079 804.624, 695.548 825.250 M 5622 814.063 C 5565.256 817.039, 5530.291 827.924, 5510.930 848.640 C 5501.882 858.320, 5498.284 867.023, 5497.327 881.535 C 5496.592 892.687, 5498.804 904.824, 5503.153 913.500 C 5511.943 931.035, 5532.086 941.375, 5562.815 944.124 C 5588.484 946.421, 5610.862 942.817, 5628.938 933.475 C 5657.481 918.725, 5675.416 891.962, 5680.523 856.500 C 5681.315 851, 5681.972 838.962, 5681.982 829.750 L 5682 813 5659.250 813.151 C 5646.738 813.235, 5629.975 813.645, 5622 814.063" stroke="none" fill="#0c345c" fill-rule="evenodd"/></svg>