<svg width="401" height="132" viewBox="0 0 401 132" fill="none" xmlns="http://www.w3.org/2000/svg">
<g clip-path="url(#clip0_81_164)">
<path fill-rule="evenodd" clip-rule="evenodd" d="M130.856 0.743164H0.342773V131.257H130.856V0.743164ZM104.604 55.3389L105.694 54.6646C105.738 54.6387 105.773 54.5995 105.793 54.5526C105.814 54.5057 105.819 54.4535 105.807 54.4036L105.017 50.5365C105.015 50.5247 105.01 50.5134 105.005 50.5027L103.818 47.2543C103.804 47.2151 103.78 47.1802 103.748 47.1531C103.716 47.126 103.678 47.1076 103.637 47.0996L100.367 46.4785C100.32 46.47 100.271 46.4759 100.227 46.4954L99.9005 46.6332C99.8481 46.6556 99.8053 46.6957 99.7797 46.7466C99.754 46.7974 99.7471 46.8557 99.7603 46.9111L99.8086 47.119C99.819 47.1674 99.8142 47.2179 99.795 47.2635C99.7757 47.3091 99.7429 47.3478 99.7009 47.3741C99.659 47.4005 99.61 47.4134 99.5605 47.4109C99.511 47.4085 99.4635 47.391 99.4243 47.3607L95.7192 44.441C95.68 44.4102 95.6513 44.368 95.637 44.3202L95.2793 43.1262C95.2676 43.0862 95.2665 43.0439 95.276 43.0034C95.2855 42.9628 95.3053 42.9254 95.3335 42.8948C95.3617 42.8642 95.3974 42.8413 95.437 42.8285C95.4766 42.8157 95.5189 42.8134 95.5597 42.8217L96.9083 43.102C96.9398 43.1083 96.9721 43.1083 97.0036 43.102C97.035 43.0956 97.0649 43.0831 97.0914 43.0651C97.118 43.0471 97.1407 43.024 97.1582 42.9972C97.1757 42.9703 97.1877 42.9402 97.1935 42.9087L97.3796 41.9129C97.3917 41.8575 97.3822 41.7996 97.353 41.751L95.1875 37.9178C95.1675 37.8811 95.1383 37.8503 95.1029 37.8283L89.2515 34.3335C89.2155 34.3125 89.1855 34.2825 89.1645 34.2465L87.0666 30.5341C87.0519 30.5072 87.0322 30.4835 87.0086 30.464L81.8171 26.2537L78.8805 23.3969C78.8526 23.3699 78.8186 23.35 78.7814 23.3389L72.2992 21.3691L69.1065 19.977C69.0818 19.9669 69.0557 19.9604 69.0292 19.9576L62.8032 19.4743H62.7548L57.1814 17.9153C57.1597 17.913 57.1379 17.913 57.1162 17.9153H53.8751C53.851 17.9117 53.8266 17.9117 53.8026 17.9153L48.8721 19.4767L43.4171 21.838C43.3589 21.863 43.3129 21.9099 43.289 21.9685L42.634 23.5661C42.6178 23.6063 42.5911 23.6415 42.5566 23.6679C42.5222 23.6942 42.4813 23.7108 42.4382 23.7159L40.6425 23.9214C40.5831 23.928 40.5282 23.9563 40.4885 24.0009C40.4488 24.0456 40.427 24.1033 40.4273 24.1631V25.444C40.4279 25.4931 40.4136 25.5411 40.3863 25.5818L39.4195 27.0005C39.3996 27.0295 39.3863 27.0625 39.3804 27.0971C39.3746 27.1318 39.3764 27.1673 39.3857 27.2011L39.8207 28.7939C39.831 28.8308 39.85 28.8648 39.8761 28.893C39.9021 28.9211 39.9345 28.9427 39.9705 28.9558L40.6739 29.212C40.7313 29.2349 40.7953 29.2349 40.8527 29.212L43.6153 28.0277C43.646 28.0153 43.6788 28.0088 43.7119 28.0084H45.6866C45.7162 28.0085 45.7455 28.0134 45.7736 28.0229L47.9754 28.8591C48.0213 28.8763 48.0608 28.907 48.0889 28.9471C48.1169 28.9872 48.1322 29.035 48.1325 29.0839H49.4449L51.1367 28.8422L52.2557 28.644C52.3994 28.6192 52.5472 28.6324 52.6841 28.6824C52.8211 28.7325 52.9426 28.8176 53.0364 28.9292L53.15 29.067C53.2736 29.2166 53.3411 29.4047 53.3409 29.5987V29.7993C53.3414 29.8281 53.3491 29.8563 53.3635 29.8813C53.3779 29.9062 53.3984 29.9271 53.4231 29.9419L53.892 30.2223C53.9175 30.2379 53.9467 30.2462 53.9766 30.2465H54.3778C54.4864 30.2464 54.5939 30.2676 54.6943 30.3091C54.7946 30.3506 54.8859 30.4114 54.9627 30.4882L55.4461 30.9715C55.4839 31.01 55.5179 31.0521 55.5476 31.0972L55.5693 31.1286C55.6312 31.2202 55.674 31.3232 55.6953 31.4316C55.7166 31.54 55.716 31.6516 55.6935 31.7597C55.6709 31.8679 55.627 31.9704 55.5641 32.0613C55.5013 32.1522 55.4209 32.2295 55.3276 32.2888L54.4721 32.8253L54.4503 32.8398L53.8727 33.3546C53.8647 33.3615 53.8584 33.37 53.8543 33.3797C53.8501 33.3893 53.8481 33.3997 53.8485 33.4102C53.849 33.4263 53.8547 33.4418 53.8647 33.4545C53.8747 33.4671 53.8885 33.4761 53.9041 33.4803L54.9216 33.7341L56.1011 34.0483H56.9349C56.995 34.0486 57.0549 34.0551 57.1137 34.0676L58.356 34.3431C58.5646 34.3905 58.7471 34.5159 58.866 34.6936L59.0352 34.9498C59.0464 34.9658 59.0603 34.9797 59.0763 34.9909L59.6733 35.4259C59.7993 35.5175 59.8938 35.6461 59.9435 35.7937C59.9933 35.9414 59.996 36.1008 59.9512 36.2501C59.9475 36.2636 59.947 36.2777 59.9496 36.2915C59.9522 36.3052 59.9579 36.3182 59.9663 36.3294C59.9747 36.3406 59.9856 36.3497 59.998 36.3561C60.0105 36.3624 60.0242 36.3659 60.0382 36.3661H60.9276C60.9536 36.3665 60.9793 36.3607 61.0026 36.3492L61.4545 36.122C61.5692 36.0643 61.6959 36.0345 61.8243 36.035H62.2594C62.3878 36.0345 62.5144 36.0643 62.6292 36.122L62.9119 36.2646C63.0466 36.3356 63.159 36.4425 63.2367 36.5734C63.3143 36.7044 63.3542 36.8543 63.3518 37.0066V37.2096C63.3518 37.368 63.3062 37.5231 63.2205 37.6564C63.1348 37.7897 63.0126 37.8955 62.8684 37.9613L62.1434 38.2972L62.1071 38.3214L61.9355 38.464C61.9088 38.4859 61.8896 38.5156 61.8805 38.549C61.8714 38.5823 61.8729 38.6176 61.8847 38.6501L61.9113 38.7202C61.9596 38.8454 61.9766 38.9804 61.961 39.1137C61.9454 39.247 61.8976 39.3744 61.8217 39.4851C61.7458 39.5957 61.6441 39.6862 61.5254 39.7487C61.4067 39.8113 61.2745 39.844 61.1403 39.844H60.6569C60.5351 39.8438 60.4148 39.8174 60.3041 39.7667L59.0545 39.1794C58.9912 39.149 58.932 39.1108 58.8781 39.0658L57.9331 38.2779L57.921 38.2658L57.4159 37.7993C57.4079 37.7912 57.3979 37.7853 57.3869 37.7824C57.3757 37.7802 57.3642 37.7802 57.353 37.7824C57.3468 37.785 57.3411 37.7887 57.3361 37.7931C57.3325 37.7964 57.3292 37.8001 57.3264 37.8042C57.3226 37.8151 57.3226 37.8271 57.3264 37.838C57.3267 37.8464 57.3288 37.8546 57.3325 37.8621C57.3363 37.8697 57.3416 37.8763 57.3482 37.8815L57.411 37.9347C57.5511 38.0514 57.6488 38.211 57.689 38.3888C57.7292 38.5666 57.7096 38.7528 57.6334 38.9184L57.4739 39.2616C57.4571 39.2977 57.4539 39.3386 57.465 39.3768C57.4761 39.4151 57.5008 39.448 57.5343 39.4694L57.8509 39.6797C57.8666 39.6916 57.8848 39.6998 57.9041 39.7039L59.1681 40.0011H60.4467C60.5651 40.0015 60.6821 40.0271 60.7899 40.0761L61.4014 40.354C61.5071 40.4015 61.6017 40.4709 61.6787 40.5575C61.7558 40.6442 61.8137 40.7461 61.8485 40.8567L62.2086 41.9951C62.216 42.0192 62.2288 42.0412 62.246 42.0596C62.2631 42.0781 62.2842 42.0923 62.3077 42.1014L63.1367 42.4326L63.1778 42.4543L63.405 42.58C63.5516 42.661 63.6696 42.7853 63.7431 42.9358C63.8165 43.0864 63.8417 43.2559 63.8153 43.4213C63.7889 43.5867 63.7121 43.74 63.5954 43.8602C63.4787 43.9804 63.3278 44.0617 63.1633 44.093L62.1192 44.2888C61.9963 44.3106 61.8702 44.3056 61.7494 44.2743L61.179 44.1196C61.0579 44.085 60.9461 44.0236 60.852 43.9399C60.7578 43.8562 60.6837 43.7524 60.6352 43.6362L60.5554 43.4453C60.5389 43.4091 60.5108 43.3793 60.4757 43.3607L59.9923 43.119C59.9553 43.1017 59.9136 43.0975 59.8739 43.1069L58.6654 43.4428C58.6431 43.4484 58.6223 43.4591 58.605 43.4743L57.7542 44.1824C57.7398 44.1932 57.7282 44.2073 57.7204 44.2235L57.0582 45.2797C57.0449 45.3003 57.0365 45.3236 57.0336 45.3478C57.0307 45.3721 57.0333 45.3967 57.0412 45.4199L57.2684 46.1014C57.2742 46.121 57.2841 46.1392 57.2974 46.1546L57.5391 46.4326C57.6374 46.5474 57.7024 46.6869 57.7271 46.836C57.7518 46.9851 57.7353 47.1381 57.6793 47.2785L57.3289 48.1534C57.3212 48.1726 57.3171 48.1931 57.3168 48.2138V49.3353C57.3177 49.3763 57.3331 49.4157 57.3603 49.4465L57.8727 50.0144C57.8946 50.0401 57.9243 50.058 57.9573 50.0652L58.8684 50.2585C58.9123 50.2682 58.9552 50.282 58.9965 50.2996C59.2629 50.414 59.508 50.5725 59.7216 50.7685C59.8056 50.8607 59.8801 50.9611 59.944 51.0682C60.0165 51.1818 60.0914 51.3147 60.1639 51.4501C60.3089 51.7184 60.4467 52.006 60.5313 52.1897L60.7005 52.5788L61.5512 51.1625L61.9186 50.5752C61.9494 50.5266 61.9965 50.4906 62.0515 50.4736L63.0183 50.174H63.0545L65.2854 49.8549C65.3306 49.8478 65.3769 49.8546 65.4183 49.8743L68.6183 51.3123C68.6494 51.3265 68.6832 51.3339 68.7174 51.3341H70.6171C70.6395 51.3378 70.6623 51.3378 70.6847 51.3341L73.4231 50.5292C73.4518 50.5233 73.4814 50.5233 73.5101 50.5292L76.6763 50.7709H76.7125L79.6999 50.5413C79.7605 50.5365 79.8172 50.5089 79.8584 50.464C79.8996 50.4192 79.9224 50.3605 79.9222 50.2996V49.6906C79.9225 49.6402 79.9386 49.5912 79.9681 49.5504L82.3851 46.1667C82.4019 46.1434 82.4142 46.1172 82.4213 46.0894L82.8104 44.6875C82.8184 44.6569 82.8324 44.6282 82.8515 44.603L83.9657 43.1818C83.981 43.1625 83.9989 43.1454 84.0189 43.1311L86.3174 41.5456C86.3641 41.5136 86.4205 41.4991 86.4769 41.5045L89.8823 41.8211C89.928 41.825 89.9715 41.8417 90.008 41.8694L92.002 43.3848L92.0358 43.4162L94.1458 45.7679C94.1647 45.7889 94.1867 45.8068 94.211 45.8211L98.4406 48.1027C98.4623 48.1127 98.482 48.1266 98.4986 48.1437L99.7844 49.4295C99.8082 49.4521 99.8271 49.4793 99.8401 49.5094C99.853 49.5395 99.8597 49.572 99.8597 49.6048C99.8597 49.6375 99.853 49.67 99.8401 49.7001C99.8271 49.7302 99.8082 49.7574 99.7844 49.78L99.1029 50.4036C99.0661 50.4375 99.0408 50.482 99.0304 50.5309C99.0201 50.5798 99.0251 50.6307 99.0449 50.6767L99.9222 52.7625C99.9391 52.8029 99.9667 52.838 100.002 52.864L102.325 54.5558C102.341 54.5685 102.359 54.5791 102.378 54.5872L104.389 55.3607C104.424 55.374 104.461 55.379 104.499 55.3752C104.536 55.3714 104.572 55.359 104.604 55.3389ZM63.1464 43.3873C63.1233 43.4128 63.0929 43.4305 63.0594 43.4381L62.0129 43.6338C61.9891 43.6399 61.9641 43.6399 61.9404 43.6338L61.37 43.4791C61.346 43.4724 61.3239 43.4604 61.3051 43.4442C61.2863 43.4279 61.2713 43.4076 61.2612 43.3849L61.179 43.1939C61.1026 43.0137 60.9647 42.8663 60.7899 42.7782L60.2944 42.5365C60.1117 42.4454 59.9017 42.4248 59.7047 42.4785L58.4962 42.8145C58.3826 42.8453 58.277 42.9006 58.1869 42.9764L57.3361 43.6846C57.269 43.7404 57.2111 43.8065 57.1645 43.8803L56.5071 44.9293C56.4429 45.0329 56.4022 45.1495 56.388 45.2706C56.3738 45.3917 56.3864 45.5145 56.4249 45.6302L56.6521 46.3094C56.6862 46.4107 56.7387 46.5049 56.8068 46.5873L57.0485 46.8628C57.0678 46.886 57.0805 46.914 57.0852 46.9437C57.0899 46.9735 57.0864 47.004 57.0751 47.032L56.7271 47.9069C56.6878 48.0045 56.6673 48.1087 56.6666 48.2139V49.3353C56.6673 49.5397 56.743 49.7366 56.8793 49.8888L57.3917 50.4592C57.5067 50.5823 57.657 50.6668 57.8219 50.7009L58.7089 50.9063H58.7234C58.9149 50.9868 59.092 51.0978 59.2479 51.235C59.2968 51.2923 59.3405 51.3537 59.3784 51.4187C59.4388 51.5154 59.5065 51.6338 59.5742 51.7595C59.712 52.0133 59.8449 52.2864 59.9246 52.4604L60.3041 53.3353L60.1518 55.9939C60.1496 56.037 60.159 56.0799 60.179 56.1182C60.1989 56.1564 60.2288 56.1887 60.2654 56.2115L60.7295 56.5015C60.7794 56.5325 60.8164 56.5806 60.8334 56.6368L61.3168 58.2223L59.6249 57.6544H59.6008L57.8219 56.7287C57.7215 56.6756 57.6113 56.6435 57.4981 56.6344L54.1579 56.3927C54.0298 56.3832 53.9012 56.4048 53.7833 56.4556L52.8165 56.8592L51.8086 56.168C51.7203 56.1053 51.6199 56.0617 51.5138 56.0399L50.6147 55.8465C50.5791 55.8391 50.547 55.8205 50.5228 55.7933L50.3996 55.6483C50.3756 55.619 50.3625 55.5823 50.3625 55.5444C50.3625 55.5065 50.3756 55.4698 50.3996 55.4405L51.1778 54.4399C51.2474 54.3504 51.2978 54.2476 51.3261 54.1379C51.3544 54.0281 51.3598 53.9137 51.3422 53.8018L51.1464 52.5619C51.1251 52.4319 51.0738 52.3086 50.9965 52.2018L50.1555 51.0562L49.5343 50.2272C49.4696 50.1399 49.3882 50.0664 49.2948 50.0108C49.2015 49.9552 49.0981 49.9187 48.9905 49.9033L47.6008 49.7051C47.4428 49.6824 47.2816 49.7059 47.1367 49.7728L45.4908 50.5269C45.3825 50.576 45.2861 50.6482 45.2085 50.7384C45.1309 50.8285 45.0738 50.9345 45.0413 51.0489L44.5796 52.6296C44.5678 52.6701 44.541 52.7047 44.5047 52.7263L44.0624 52.9921C44.0392 53.004 44.0135 53.0102 43.9875 53.0102C43.9614 53.0102 43.9357 53.004 43.9126 52.9921L42.9724 52.6175L42.3561 52.3371C42.3272 52.3235 42.3029 52.3019 42.2857 52.275C42.2686 52.248 42.2595 52.2168 42.2594 52.1849V51.2181C42.2605 51.071 42.2224 50.9262 42.1489 50.7987C42.0754 50.6713 41.9692 50.5657 41.8413 50.493L41.0727 50.0532C41.0418 50.0364 41.0172 50.0101 41.0026 49.9782L40.7609 49.4393C40.7443 49.4029 40.7415 49.3617 40.7531 49.3235C40.7647 49.2852 40.7898 49.2525 40.8237 49.2314L42.5156 48.139L43.5476 47.4767C43.6854 47.3865 43.7938 47.258 43.8594 47.1069L44.1857 46.348C44.2426 46.2155 44.2639 46.0703 44.2473 45.927C44.2308 45.7837 44.177 45.6472 44.0914 45.5311L43.1005 44.1873L43.086 44.168L42.7379 43.7619C42.6603 43.6714 42.5638 43.5987 42.4553 43.5491C42.3468 43.4994 42.2289 43.4739 42.1095 43.4743H41.3603C41.3385 43.4744 41.317 43.4695 41.2975 43.4598L40.8479 43.2737C40.8356 43.2687 40.8245 43.261 40.8155 43.2513C40.8064 43.2415 40.7996 43.2299 40.7954 43.2173C40.7913 43.2046 40.79 43.1913 40.7915 43.178C40.7931 43.1648 40.7975 43.1521 40.8044 43.1408C40.8592 43.0495 40.8941 42.9477 40.9067 42.8421C40.9194 42.7364 40.9095 42.6292 40.8778 42.5276C40.846 42.426 40.7932 42.3323 40.7226 42.2526C40.6521 42.1729 40.5654 42.1091 40.4685 42.0652L40.0866 41.8912C40.0656 41.8812 40.0468 41.8672 40.031 41.8501L39.5307 41.287C39.5107 41.2645 39.4974 41.2369 39.492 41.2072L39.2914 40.139C39.2666 40.0062 39.2093 39.8816 39.1246 39.7764L39.0401 39.6701C38.9523 39.5597 38.8378 39.4736 38.7074 39.42C38.577 39.3664 38.435 39.347 38.295 39.3637C38.155 39.3804 38.0216 39.4327 37.9075 39.5155C37.7934 39.5983 37.7024 39.7089 37.6431 39.8368L37.4787 40.1873C37.4625 40.2234 37.4331 40.252 37.3965 40.2671L36.8503 40.5087C36.8293 40.5177 36.8067 40.5224 36.7839 40.5224C36.761 40.5224 36.7384 40.5177 36.7174 40.5087L36.0648 40.2356C36.0341 40.224 36.0078 40.2028 35.9899 40.1752L35.6588 39.6918C35.6413 39.6644 35.632 39.6325 35.6322 39.6V38.7323C35.6321 38.6154 35.6073 38.4999 35.5594 38.3932C35.5115 38.2866 35.4416 38.1913 35.3543 38.1136L35.1706 37.9492C35.1539 37.9338 35.1405 37.9152 35.1314 37.8944C35.1223 37.8736 35.1176 37.8511 35.1176 37.8284C35.1176 37.8057 35.1223 37.7832 35.1314 37.7624C35.1405 37.7416 35.1539 37.7229 35.1706 37.7075L35.3978 37.4803C35.4745 37.4035 35.5353 37.3123 35.5768 37.212C35.6183 37.1116 35.6396 37.004 35.6394 36.8955V36.0665C35.6393 35.9316 35.6061 35.7988 35.5428 35.6797L35.3712 35.3535L36.5168 35.4381C36.5531 35.4408 36.5896 35.4352 36.6235 35.4218C36.6574 35.4084 36.6879 35.3875 36.7126 35.3607L37.7083 34.2876L38.547 33.2217C38.5695 33.1925 38.5984 33.1688 38.6315 33.1524C38.6646 33.1361 38.701 33.1276 38.7379 33.1275H40.6836C40.7403 33.128 40.7951 33.1486 40.8382 33.1855L42.3923 34.5051C42.4157 34.5254 42.4428 34.541 42.4721 34.551L44.1132 35.0973C44.1474 35.1085 44.1836 35.1126 44.2195 35.1094L47.4848 34.7106C47.5329 34.7044 47.5817 34.7128 47.6249 34.7347L49.6286 35.7764L51.1609 36.3903C51.2001 36.4073 51.2432 36.4136 51.2857 36.4085C51.3281 36.4034 51.3685 36.3871 51.4026 36.3613L52.1059 35.8489C52.1367 35.8264 52.1617 35.797 52.179 35.7629C52.1962 35.7289 52.2051 35.6913 52.205 35.6532V34.3311C52.2043 34.3006 52.1986 34.2704 52.1881 34.2417L51.3252 32.0495C51.305 31.9961 51.2665 31.9516 51.2165 31.9239L49.6382 31.0562L48.2896 30.5462C48.2446 30.5283 48.2061 30.4973 48.1789 30.4572C48.1518 30.4171 48.1373 30.3698 48.1373 30.3214V29.739H49.4255C49.4642 29.7414 49.5029 29.7414 49.5416 29.739L51.2455 29.4973L52.3694 29.2991C52.398 29.2945 52.4273 29.2974 52.4544 29.3076C52.4815 29.3178 52.5055 29.3348 52.524 29.3571L52.6376 29.4949C52.6637 29.524 52.6776 29.5621 52.6763 29.6012V29.8018C52.6767 29.9447 52.714 30.085 52.7848 30.2091C52.8555 30.3332 52.9572 30.4369 53.0799 30.51L53.5488 30.7927C53.6772 30.8702 53.8243 30.9111 53.9742 30.9112H54.3754C54.397 30.9109 54.4184 30.9151 54.4384 30.9234C54.4583 30.9317 54.4764 30.944 54.4914 30.9595L54.9748 31.4429C54.9826 31.4507 54.9891 31.4597 54.9941 31.4695L55.0159 31.4985C55.0295 31.5173 55.0391 31.5388 55.0439 31.5615C55.0488 31.5843 55.0488 31.6078 55.044 31.6306C55.0392 31.6533 55.0297 31.6748 55.0162 31.6937C55.0026 31.7126 54.9852 31.7284 54.9651 31.7402L54.1095 32.2743C54.0699 32.299 54.0327 32.3273 53.9984 32.3589L53.4207 32.8713C53.3168 32.9583 53.2394 33.0726 53.1972 33.2013C53.155 33.33 53.1497 33.468 53.1819 33.5996C53.2141 33.7312 53.2825 33.8512 53.3794 33.9458C53.4763 34.0405 53.5978 34.1062 53.7301 34.1353L54.7476 34.3891L55.9222 34.7033C55.9918 34.7205 56.0632 34.7294 56.1349 34.7299H56.9639L58.2062 35.0054C58.2478 35.015 58.2841 35.04 58.3077 35.0755L58.4769 35.3317C58.5318 35.4131 58.6005 35.4843 58.6799 35.542L59.2769 35.977C59.292 35.9881 59.3033 36.0036 59.3093 36.0213C59.3154 36.039 59.3159 36.0581 59.3107 36.0761C59.2771 36.1887 59.2704 36.3076 59.291 36.4233C59.3116 36.539 59.3591 36.6482 59.4296 36.7422C59.5001 36.8362 59.5917 36.9124 59.697 36.9646C59.8023 37.0168 59.9183 37.0436 60.0358 37.0429H60.9252C61.0536 37.0433 61.1803 37.0135 61.295 36.9559L61.747 36.7287C61.7703 36.7171 61.796 36.7113 61.8219 36.7118H62.2497C62.2757 36.7113 62.3014 36.7171 62.3246 36.7287L62.6074 36.8713C62.6347 36.8849 62.6576 36.906 62.6734 36.9321C62.6892 36.9582 62.6973 36.9882 62.6968 37.0187V37.2217C62.6974 37.2532 62.6888 37.2841 62.672 37.3107C62.6553 37.3373 62.6312 37.3585 62.6026 37.3716L61.8775 37.7075C61.8126 37.7387 61.7517 37.7777 61.6962 37.8236L61.5222 37.9686C61.3897 38.0795 61.2952 38.229 61.2519 38.3963C61.2086 38.5636 61.2186 38.7402 61.2805 38.9015L61.3071 38.9692C61.3164 38.9943 61.3196 39.0212 61.3163 39.0478C61.313 39.0743 61.3033 39.0997 61.2882 39.1217C61.273 39.1438 61.2527 39.1618 61.2291 39.1744C61.2055 39.187 61.1792 39.1937 61.1524 39.1939H60.6691C60.6449 39.194 60.6211 39.1891 60.599 39.1794L59.3494 38.5921L59.3132 38.568L58.3754 37.7873L57.8775 37.3257C57.8089 37.2497 57.7251 37.1892 57.6314 37.1479C57.5378 37.1067 57.4365 37.0858 57.3342 37.0865C57.2318 37.0872 57.1308 37.1096 57.0378 37.1522C56.9447 37.1947 56.8617 37.2565 56.7943 37.3334C56.7268 37.4103 56.6764 37.5007 56.6463 37.5985C56.6162 37.6963 56.6072 37.7993 56.6198 37.9009C56.6324 38.0024 56.6663 38.1001 56.7194 38.1876C56.7725 38.2751 56.8434 38.3503 56.9277 38.4084L56.9905 38.4616C57.0187 38.4846 57.0383 38.5164 57.0462 38.552C57.0541 38.5875 57.0498 38.6246 57.034 38.6574L56.8769 39.003C56.7938 39.1819 56.7776 39.3847 56.8313 39.5745C56.8849 39.7643 57.0049 39.9286 57.1694 40.0375L57.486 40.2477C57.5679 40.3023 57.6587 40.3424 57.7543 40.3662L59.0183 40.6634C59.0809 40.678 59.145 40.6852 59.2092 40.6852H60.4491C60.4732 40.6851 60.4971 40.69 60.5192 40.6997L61.1307 40.9776C61.1518 40.9875 61.1706 41.0016 61.186 41.0191C61.2014 41.0365 61.213 41.057 61.2201 41.0791L61.5778 42.2127C61.614 42.3304 61.6762 42.4385 61.7599 42.5289C61.8436 42.6193 61.9466 42.6896 62.0612 42.7347L62.8902 43.0562L63.0981 43.1698C63.1158 43.1806 63.1312 43.1949 63.1433 43.2118C63.1554 43.2288 63.164 43.248 63.1685 43.2683C63.173 43.2886 63.1734 43.3096 63.1696 43.33C63.1658 43.3505 63.1579 43.37 63.1464 43.3873ZM50.9482 57.6423L52.0817 57.1758L51.4171 56.7383C51.3985 56.7268 51.3781 56.7186 51.3567 56.7142L50.4576 56.5208C50.2803 56.4833 50.1206 56.3881 50.0032 56.2501L49.8799 56.1075C49.7555 55.9623 49.6852 55.7785 49.6808 55.5874C49.6764 55.3962 49.7382 55.2094 49.8557 55.0586L50.634 54.0604C50.6474 54.0422 50.6571 54.0215 50.6625 53.9995C50.6679 53.9775 50.6689 53.9547 50.6654 53.9323L50.4696 52.69C50.4646 52.6642 50.4548 52.6396 50.4406 52.6175L49.602 51.4767L48.9832 50.6501C48.9702 50.6329 48.9539 50.6185 48.9352 50.6077C48.9165 50.5969 48.8959 50.59 48.8745 50.5873L47.4847 50.3867C47.4534 50.384 47.4219 50.3889 47.3929 50.4012L45.7446 51.1553C45.7228 51.1654 45.7035 51.1801 45.6881 51.1985C45.6726 51.2169 45.6614 51.2384 45.6551 51.2616L45.1935 52.8423C45.1358 53.0443 45.0037 53.217 44.8237 53.3256L44.3814 53.5915C44.2689 53.6584 44.1422 53.6978 44.0117 53.7066C43.8811 53.7154 43.7502 53.6934 43.6298 53.6423L42.7041 53.2459L42.0854 52.9631C41.9405 52.8976 41.8177 52.7916 41.7319 52.6577C41.6461 52.5239 41.601 52.368 41.602 52.209V51.2423C41.602 51.2131 41.5942 51.1844 41.5793 51.1593C41.5644 51.1342 41.543 51.1136 41.5174 51.0997L40.7488 50.6598C40.5994 50.574 40.4803 50.444 40.408 50.2876L40.1663 49.7486C40.0822 49.5672 40.0667 49.3614 40.1227 49.1694C40.1787 48.9774 40.3024 48.8123 40.4709 48.7045L42.1627 47.6121L43.1947 46.9498C43.2216 46.9322 43.2426 46.9069 43.2551 46.8773L43.5814 46.1184C43.5928 46.0921 43.597 46.0633 43.5936 46.0348C43.5902 46.0064 43.5794 45.9793 43.5621 45.9565L42.5784 44.6223L42.24 44.226C42.2249 44.2072 42.2058 44.192 42.184 44.1815C42.1623 44.1711 42.1385 44.1656 42.1144 44.1655H41.3651C41.2556 44.1664 41.1471 44.1451 41.0461 44.1027L40.5965 43.9166C40.4968 43.8745 40.4073 43.8115 40.334 43.7319C40.2607 43.6523 40.2053 43.5578 40.1716 43.455C40.1379 43.3521 40.1267 43.2432 40.1387 43.1356C40.1508 43.028 40.1857 42.9243 40.2412 42.8314C40.2479 42.8201 40.2521 42.8076 40.2536 42.7946C40.2551 42.7816 40.2539 42.7684 40.25 42.7559C40.2461 42.7434 40.2397 42.7318 40.2311 42.7219C40.2225 42.712 40.212 42.704 40.2002 42.6985L39.8183 42.5244C39.7119 42.4779 39.6171 42.4086 39.5403 42.3214L39.04 41.7583C38.9401 41.6454 38.8725 41.5076 38.8443 41.3595L38.6461 40.2936C38.6409 40.2671 38.6292 40.2422 38.6122 40.2211L38.5277 40.1148C38.5099 40.0929 38.4868 40.0758 38.4607 40.0652C38.4345 40.0546 38.4061 40.0508 38.3781 40.0542C38.3501 40.0576 38.3234 40.068 38.3005 40.0845C38.2776 40.1011 38.2593 40.1231 38.2473 40.1486L38.0829 40.4991C38.0002 40.6778 37.8561 40.821 37.6769 40.9027L37.1307 41.1444C37.0262 41.1898 36.9135 41.2132 36.7996 41.2132C36.6856 41.2132 36.5729 41.1898 36.4684 41.1444L35.8135 40.8713C35.6633 40.8078 35.5348 40.7019 35.4437 40.5667L35.1125 40.0713C35.0227 39.935 34.9748 39.7753 34.9748 39.6121V38.7444C34.9751 38.721 34.9703 38.6979 34.9607 38.6766C34.9511 38.6553 34.9369 38.6363 34.9192 38.6211L34.7355 38.4568C34.6503 38.382 34.5814 38.2904 34.5331 38.1878C34.4848 38.0852 34.4581 37.9738 34.4547 37.8604C34.4513 37.7471 34.4712 37.6342 34.5133 37.5289C34.5554 37.4236 34.6187 37.3281 34.6993 37.2483L34.9264 37.0211C34.9574 36.9895 34.9748 36.947 34.9748 36.9027V36.0737C34.9744 36.0468 34.9678 36.0203 34.9554 35.9963L34.5881 35.3027L32.2485 35.1287C32.1916 35.1247 32.1351 35.1409 32.089 35.1746L31.3132 35.7377C31.2717 35.7678 31.2217 35.7838 31.1706 35.7837H29.5174C29.4598 35.7837 29.4041 35.8042 29.3603 35.8417L26.8467 37.9613C26.803 37.9984 26.7738 38.0498 26.7645 38.1063L26.5397 39.455C26.5347 39.491 26.5206 39.5251 26.4986 39.5541L25.7107 40.6731C25.6898 40.7025 25.6756 40.7362 25.6694 40.7718C25.6632 40.8073 25.665 40.8439 25.6747 40.8786C25.6845 40.9134 25.7019 40.9456 25.7257 40.9727C25.7495 40.9999 25.779 41.0214 25.8122 41.0356L30.1409 42.8967C30.1939 42.9196 30.2369 42.9607 30.2621 43.0126C30.2874 43.0644 30.2933 43.1236 30.2787 43.1794L29.8437 44.8519C29.8413 44.8728 29.8413 44.8939 29.8437 44.9148V46.5752C29.8438 46.6056 29.8389 46.6358 29.8292 46.6646L25.2539 58.3456C25.2403 58.3805 25.2349 58.4181 25.2382 58.4554C25.2416 58.4928 25.2536 58.5288 25.2733 58.5607L27.4775 62.1039C27.509 62.1552 27.5202 62.2164 27.5089 62.2755L26.7983 66.0701C26.7888 66.1263 26.7982 66.1841 26.8249 66.2344L27.3784 67.2374C27.4068 67.2897 27.4545 67.3287 27.5113 67.3462L29.573 68.0326C29.6295 68.052 29.6769 68.0916 29.7059 68.1438L31.028 70.4761L33.0461 70.3287C33.0837 70.3253 33.1192 70.3095 33.1468 70.2836C33.1744 70.2578 33.1926 70.2234 33.1983 70.1861L33.5053 68.1027C33.529 67.9377 33.6022 67.7837 33.7153 67.6612C33.8284 67.5386 33.9759 67.4532 34.1385 67.4163L36.6014 66.8531C36.6243 66.8485 36.6458 66.8386 36.6642 66.8241L37.9693 65.8574C38.1004 65.7595 38.2575 65.7024 38.4209 65.6934C38.5843 65.6844 38.7467 65.7238 38.8878 65.8066L40.2582 66.6163C40.4359 66.7207 40.5679 66.888 40.628 67.0852L41.7808 70.829C41.7917 70.8646 41.8144 70.8955 41.8451 70.9166C41.8758 70.9377 41.9128 70.9477 41.95 70.945L44.6255 70.7541L43.9222 68.2864V68.2622L42.8539 65.9734C42.7743 65.8028 42.7547 65.6103 42.7983 65.4272L43.3857 63.0102C43.4257 62.8559 43.5097 62.7166 43.6273 62.609L45.689 60.6006C45.763 60.5292 45.8499 60.4726 45.9452 60.4338L48.3669 59.4235L48.3959 59.4066L50.7935 57.7293C50.8423 57.6956 50.8941 57.6665 50.9482 57.6423ZM54.5228 81.345L54.7645 83.6894V83.7281L54.5397 85.4441C54.5369 85.4724 54.526 85.4992 54.5083 85.5214L52.6207 88.0398L52.6062 88.0568L50.9144 89.7486C50.7892 89.8689 50.7047 90.0252 50.6727 90.1957L50.4721 91.4042C50.4494 91.5395 50.461 91.6782 50.5059 91.8078L51.3397 94.2247C51.3445 94.2487 51.3445 94.2733 51.3397 94.2972L51.0328 96.9849C51.03 97.0068 51.0235 97.028 51.0135 97.0477L49.3845 99.9939C49.3166 100.117 49.2809 100.255 49.2805 100.395V101.222L48.5845 101.538C48.5501 101.554 48.5198 101.577 48.4961 101.607C48.4724 101.636 48.4559 101.671 48.4479 101.707C48.4399 101.744 48.4406 101.783 48.4501 101.819C48.4595 101.856 48.4774 101.889 48.5023 101.918L49.3555 102.885C49.3845 102.917 49.4042 102.956 49.4127 102.999C49.4212 103.041 49.4182 103.085 49.4038 103.126L49.2394 103.61C49.2267 103.647 49.2051 103.68 49.1764 103.707C49.1478 103.734 49.113 103.754 49.0751 103.764L46.9361 104.354C46.8937 104.366 46.8488 104.367 46.8062 104.355C46.7636 104.344 46.7249 104.321 46.6944 104.289L42.7379 100.18L40.4032 97.7631C40.3611 97.7195 40.337 97.6617 40.3355 97.6012L40.1736 92.1244C40.1737 92.0863 40.1637 92.0487 40.1446 92.0157L39.202 90.2852C39.1873 90.2583 39.1676 90.2346 39.144 90.2151L35.6878 87.3148C35.6443 87.2787 35.5896 87.2591 35.5331 87.2592H34.4406C34.3969 87.2591 34.3541 87.2471 34.3166 87.2245C34.2791 87.202 34.2485 87.1697 34.228 87.1311L33.6866 86.116C33.6702 86.0849 33.6472 86.0578 33.6192 86.0365C33.5912 86.0152 33.559 86.0003 33.5246 85.9927L31.4582 85.5698C31.4202 85.5615 31.3848 85.5443 31.3549 85.5194C31.3251 85.4946 31.3016 85.463 31.2866 85.4272L30.5615 83.6628C30.5481 83.6296 30.5275 83.5998 30.5011 83.5756C30.4748 83.5513 30.4434 83.5333 30.4092 83.5226L28.57 82.9571C28.5136 82.9397 28.4656 82.9024 28.4349 82.8521C28.4042 82.8018 28.3929 82.742 28.4032 82.684L28.9349 79.7208C28.9422 79.6857 28.9422 79.6495 28.9349 79.6145L28.4225 77.7897C28.4071 77.7353 28.4112 77.6772 28.4342 77.6256C28.4571 77.5739 28.4975 77.5319 28.5482 77.5069L29.2515 77.1565C29.2857 77.1394 29.3153 77.1146 29.338 77.0839C29.3606 77.0532 29.3757 77.0177 29.382 76.98L29.515 76.1849C29.5234 76.1347 29.5158 76.0831 29.4932 76.0374L29.0872 75.2229C29.0702 75.1888 29.0453 75.1592 29.0146 75.1365C28.984 75.1138 28.9484 75.0987 28.9107 75.0924L26.6558 74.7178C26.6221 74.7119 26.59 74.699 26.5616 74.6798C26.5333 74.6607 26.5094 74.6357 26.4914 74.6066L25.9017 73.6664C25.881 73.6335 25.8686 73.596 25.8655 73.5572C25.8624 73.5184 25.8687 73.4795 25.8839 73.4436C25.899 73.4078 25.9227 73.3762 25.9527 73.3514C25.9827 73.3267 26.0183 73.3095 26.0564 73.3015L29.4787 72.5595C29.5121 72.5517 29.5434 72.5368 29.5706 72.516L31.2624 71.2688C31.306 71.235 31.3367 71.1872 31.3494 71.1335L33.1307 71.003C33.3185 70.9891 33.4961 70.9116 33.634 70.7833C33.772 70.655 33.8621 70.4836 33.8896 70.2972L34.1965 68.2139C34.2011 68.1809 34.2155 68.15 34.2379 68.1254C34.2604 68.1008 34.2898 68.0836 34.3222 68.0761L36.7851 67.513C36.8986 67.4867 37.0056 67.4374 37.0993 67.3679L38.4044 66.4012C38.4315 66.3829 38.4635 66.3731 38.4962 66.3731C38.529 66.3731 38.5609 66.3829 38.5881 66.4012L39.9585 67.2108C39.9934 67.2323 40.0192 67.2658 40.031 67.3051L41.1839 71.0489C41.2391 71.2276 41.3533 71.3822 41.5079 71.4876C41.6624 71.593 41.8481 71.6428 42.0346 71.629L44.9857 71.4187L44.9977 71.4308L46.7113 72.8592C46.7935 72.9284 46.8885 72.9807 46.991 73.0131C47.0935 73.0454 47.2013 73.0572 47.3083 73.0477L50.0032 72.8302C50.0395 72.8272 50.0759 72.8356 50.1071 72.8544L51.4122 73.6809C51.4398 73.6985 51.4616 73.7237 51.4751 73.7534L52.5289 76.0882C52.577 76.1916 52.6452 76.2845 52.7295 76.3613L55.057 78.464C55.0787 78.4838 55.0949 78.5089 55.1038 78.5369C55.1127 78.565 55.1141 78.5948 55.1077 78.6235L54.5301 81.0719C54.5132 81.1619 54.5107 81.2541 54.5228 81.345ZM91.4968 102.901L91.0255 100.313C91.0112 100.291 91.0005 100.266 90.9941 100.24L91.4775 97.2604C91.4811 97.2331 91.4811 97.2055 91.4775 97.1782L90.866 93.7945C90.8548 93.7328 90.82 93.6779 90.769 93.6414C90.7181 93.6049 90.6549 93.5896 90.5929 93.5987L89.3095 93.7921C89.2667 93.7982 89.223 93.7926 89.183 93.776C89.1431 93.7595 89.1083 93.7324 89.0823 93.6978L87.6322 91.7764C87.6208 91.7628 87.6082 91.7503 87.5946 91.7389C87.5858 91.7316 87.5765 91.7247 87.5669 91.7184L82.9748 88.8181C82.9244 88.7865 82.8874 88.7375 82.8708 88.6803L82.5881 87.6942C82.573 87.6403 82.5397 87.5933 82.4938 87.5613L81.3965 86.8072C81.3523 86.7767 81.3195 86.7323 81.3033 86.6811C81.2872 86.6299 81.2885 86.5748 81.3071 86.5244L82.7766 82.5776C82.7899 82.5471 82.7968 82.5142 82.7968 82.4809C82.7968 82.4476 82.7899 82.4147 82.7766 82.3842L81.7397 80.3129L81.3506 82.2465C81.3246 82.3798 81.2656 82.5044 81.179 82.609L79.1005 85.1492C79.0156 85.2548 78.906 85.3378 78.7814 85.3909L74.1772 87.3244L74.1458 87.3365L72.4249 87.8586C72.3854 87.8711 72.3518 87.8978 72.3307 87.9335L71.1633 89.9033C71.15 89.9252 71.1425 89.9502 71.1415 89.9758L70.8394 93.6012C70.829 93.7263 70.7904 93.8475 70.7263 93.9555C70.6623 94.0635 70.5745 94.1556 70.4696 94.2247L66.7959 96.6416L66.1216 97.2024H73.4473L77.5875 96.3589C77.7294 96.3302 77.8764 96.3392 78.0138 96.385C78.1512 96.4308 78.2742 96.5118 78.3705 96.6199L79.9802 98.4278C80.0758 98.5362 80.1414 98.6677 80.1707 98.8093C80.1999 98.9508 80.1918 99.0976 80.147 99.235L79.2648 101.954C79.2546 101.986 79.2539 102.019 79.2629 102.051C79.272 102.083 79.2903 102.111 79.3156 102.133L80.6666 103.247C80.8066 103.363 80.9047 103.522 80.9457 103.699C80.9868 103.877 80.9685 104.062 80.8938 104.228L80.2944 105.543C80.2173 105.716 80.0823 105.857 79.9125 105.942L77.0316 107.38C77.0045 107.395 76.9818 107.416 76.9661 107.443C76.9503 107.469 76.942 107.499 76.9421 107.53V110.07C76.9416 110.1 76.9492 110.129 76.9639 110.155L78.0539 111.996L80.3137 110.546L80.3573 110.524L85.9307 108.395C85.9429 108.39 85.9548 108.384 85.9662 108.377C85.9756 108.371 85.9847 108.365 85.9935 108.359L89.8316 105.343C89.8501 105.328 89.8663 105.311 89.8799 105.292L91.4557 103.085C91.4745 103.059 91.4878 103.029 91.4949 102.997C91.502 102.966 91.5026 102.933 91.4968 102.901ZM80.2944 103.955L79.7095 105.27C79.693 105.304 79.6659 105.332 79.6322 105.35L76.7537 106.8C76.6161 106.869 76.5006 106.975 76.4199 107.106C76.3392 107.237 76.2966 107.388 76.2969 107.542V110.077C76.2964 110.226 76.3356 110.372 76.4105 110.5L77.5126 112.359L77.4304 112.412C77.3912 112.436 77.346 112.449 77.2999 112.448H74.0926L72.2509 112.91C72.2152 112.919 72.1821 112.936 72.154 112.96C72.1259 112.984 72.1037 113.014 72.089 113.048L71.9367 113.401C71.9215 113.437 71.8976 113.469 71.8673 113.493C71.837 113.518 71.8011 113.535 71.7627 113.543L69.4256 114.01C69.4103 114.012 69.3949 114.012 69.3796 114.01H67.0111C66.9781 114.01 66.9454 114.003 66.9151 113.99C66.8848 113.977 66.8575 113.958 66.8348 113.934C66.8122 113.91 66.7947 113.881 66.7834 113.85C66.7722 113.819 66.7674 113.786 66.7694 113.753L66.8298 112.736C66.832 112.695 66.8239 112.654 66.8061 112.618C66.7884 112.581 66.7616 112.549 66.7283 112.526L65.005 111.317C64.9611 111.286 64.929 111.241 64.9136 111.189C64.8983 111.137 64.9007 111.082 64.9204 111.032L65.4981 109.582C65.5074 109.559 65.5131 109.534 65.515 109.509L65.573 108.625C65.5737 108.589 65.5663 108.553 65.5513 108.52C65.5362 108.487 65.5139 108.457 65.4861 108.434C65.4582 108.411 65.4255 108.394 65.3903 108.385C65.3552 108.377 65.3185 108.376 65.283 108.383L62.1845 109.045C62.1418 109.057 62.0966 109.057 62.054 109.045L59.9657 108.32L56.8237 107.16L54.4358 106.416C54.4031 106.405 54.373 106.388 54.3474 106.366C54.3218 106.343 54.3014 106.315 54.2874 106.283C54.2735 106.252 54.2663 106.218 54.2665 106.184C54.2667 106.15 54.2741 106.116 54.2884 106.085L55.2552 103.982C55.2727 103.943 55.2798 103.901 55.2758 103.859C55.2718 103.817 55.2568 103.776 55.2323 103.742C55.2078 103.707 55.1748 103.68 55.1364 103.662C55.098 103.645 55.0556 103.637 55.0135 103.641L53.8389 103.752C53.7942 103.756 53.7493 103.748 53.7091 103.728C53.669 103.708 53.6353 103.677 53.6117 103.639L53.1017 102.812L56.6642 102.005C56.7422 101.989 56.8172 101.961 56.8866 101.923L59.3035 100.601C59.323 100.588 59.3456 100.581 59.3688 100.581L62.0878 100.354C62.2566 100.34 62.417 100.274 62.547 100.166L65.3241 97.8598H73.4256C73.4815 97.859 73.5373 97.8533 73.5923 97.8429L77.7325 96.9994C77.7608 96.9935 77.7902 96.9951 77.8178 97.004C77.8453 97.0129 77.8701 97.0288 77.8896 97.0501L79.4969 98.858C79.5157 98.8799 79.5287 98.9063 79.5346 98.9346C79.5405 98.9629 79.5392 98.9923 79.5307 99.0199L78.6461 101.739C78.5947 101.897 78.5921 102.067 78.6386 102.226C78.6852 102.386 78.7788 102.528 78.9071 102.633L80.2558 103.75C80.2851 103.774 80.3049 103.808 80.312 103.846C80.319 103.883 80.3128 103.922 80.2944 103.955ZM80.7005 82.1208L81.2539 79.3607C81.2289 79.3315 81.1963 79.3098 81.1597 79.2978L78.2932 78.4882C78.2606 78.4788 78.2303 78.4627 78.2043 78.4408C78.1783 78.419 78.1572 78.3919 78.1424 78.3613C78.1275 78.3308 78.1193 78.2974 78.1182 78.2635C78.1172 78.2295 78.1233 78.1957 78.1361 78.1643L78.4189 77.4851C78.4361 77.4435 78.4645 77.4075 78.5011 77.3812L79.9077 76.3492L80.7609 75.5782C80.758 75.5477 80.7489 75.5181 80.7343 75.4912L80.4129 74.9039C80.3909 74.8635 80.3578 74.8302 80.3176 74.8079C80.2773 74.7857 80.2316 74.7754 80.1857 74.7782L77.5778 74.9305C77.5431 74.9333 77.5082 74.9275 77.4763 74.9135L75.0594 73.9758C75.0008 73.9535 74.9531 73.9093 74.9265 73.8525L74.3561 72.6441C74.3402 72.6113 74.332 72.5753 74.332 72.5389C74.332 72.5025 74.3402 72.4666 74.3561 72.4338L76.4128 68.2404C76.4251 68.2109 76.4315 68.1793 76.4315 68.1474C76.4315 68.1154 76.4251 68.0838 76.4128 68.0543L75.8932 66.5703C75.8768 66.5209 75.8768 66.4675 75.8932 66.4181L76.2413 65.3063C76.2547 65.2647 76.2566 65.2203 76.2468 65.1778C76.237 65.1352 76.2159 65.0961 76.1857 65.0646L74.7838 63.5903C74.7608 63.5661 74.733 63.547 74.7023 63.5341C74.6715 63.5212 74.6384 63.5148 74.605 63.5154L68.3863 63.5951C68.3538 63.596 68.3215 63.5893 68.292 63.5758L63.9851 61.8235C63.9628 61.813 63.9417 61.8 63.9222 61.7848L61.9379 60.1148C61.9017 60.0852 61.8748 60.0457 61.8606 60.0012L61.5657 59.0344L59.4147 58.3093C59.373 58.2959 59.3326 58.279 59.2938 58.2586L57.5174 57.3305C57.4966 57.3215 57.4746 57.3158 57.4521 57.3135L54.112 57.0719C54.0863 57.0688 54.0604 57.073 54.037 57.0839L51.2165 58.2586L51.1851 58.2755L48.7875 59.9528C48.7395 59.9871 48.6875 60.0155 48.6328 60.0374L46.2014 61.0574C46.1833 61.0655 46.1669 61.077 46.153 61.0912L44.0866 63.0779C44.0648 63.1011 44.049 63.1294 44.0406 63.1601L43.4558 65.577C43.4426 65.6121 43.4426 65.6507 43.4558 65.6858L44.541 67.9673C44.5594 68.0072 44.5748 68.0484 44.5869 68.0906L45.3627 70.8024C45.3709 70.8349 45.3896 70.8637 45.4159 70.8845L47.1295 72.3129C47.1458 72.3266 47.1647 72.3368 47.185 72.343C47.2054 72.3493 47.2267 72.3514 47.2479 72.3492L49.9428 72.1317C50.1219 72.117 50.3009 72.1611 50.4527 72.2574L51.7579 73.0815C51.8952 73.1687 52.0044 73.2937 52.0721 73.4416L53.1258 75.7764C53.1359 75.7974 53.1498 75.8162 53.1669 75.832L55.521 77.9661C55.6292 78.0662 55.7086 78.1933 55.7511 78.3344C55.7936 78.4755 55.7976 78.6254 55.7627 78.7685L55.1875 81.2169C55.1839 81.2352 55.1839 81.2541 55.1875 81.2725L55.4292 83.6169C55.4364 83.6795 55.4364 83.7428 55.4292 83.8054L55.2068 85.5238C55.187 85.6648 55.1322 85.7986 55.0473 85.9129L53.1597 88.4289C53.1366 88.461 53.1107 88.4909 53.0823 88.5184L51.3905 90.2102C51.3655 90.2349 51.3493 90.2672 51.3446 90.3021L51.1416 91.5105C51.1344 91.5366 51.1344 91.5642 51.1416 91.5903L51.9754 94.0072C52.0146 94.1238 52.0278 94.2475 52.0141 94.3697L51.7071 97.0573C51.6948 97.1649 51.662 97.2691 51.6104 97.3643L49.9814 100.313C49.9703 100.336 49.9653 100.362 49.9669 100.388V100.915L50.0467 100.878C50.1034 100.856 50.1664 100.856 50.2231 100.878L52.2703 101.565C52.3238 101.583 52.3692 101.62 52.3984 101.669L52.7246 102.181H52.7802L56.5168 101.367C56.5328 101.364 56.5483 101.36 56.5627 101.352L58.9796 100.03C59.081 99.9744 59.193 99.9407 59.3083 99.9311L62.0274 99.7039C62.0614 99.7013 62.0936 99.6877 62.1192 99.6652L66.3875 96.1244L66.4165 96.1027L70.1023 93.6761C70.1234 93.6621 70.1411 93.6435 70.154 93.6218C70.167 93.6 70.1749 93.5756 70.1772 93.5504L70.4793 89.925C70.4889 89.8004 70.5269 89.6797 70.5905 89.5722L71.7579 87.5999C71.8644 87.4232 72.0321 87.2916 72.2292 87.2302L73.9331 86.7129L78.5252 84.7794C78.5495 84.7692 78.571 84.7535 78.5881 84.7335L80.6666 82.1909C80.6836 82.1707 80.6953 82.1466 80.7005 82.1208Z" fill="#051C36"/>
<path d="M293.478 59.4197V30.1509H296.303V36.8748H296.416C297.038 32.185 301.897 29.3599 308.847 29.3599C317.436 29.3599 320.995 33.0891 320.995 41.9602V59.4197H318.17V41.9602C318.17 34.6712 315.571 32.072 308.395 32.072C300.259 32.072 296.303 35.6883 296.303 43.0902V59.4197H293.478Z" fill="#051C36"/>
<path d="M272.103 60.2673C260.18 60.2673 257.355 51.5093 257.355 44.7853C257.355 38.1179 260.18 29.3599 272.103 29.3599C282.217 29.3599 286.511 35.6318 286.511 45.0678V45.5764H260.124C260.35 51.7918 263.175 57.7246 272.103 57.7246C278.94 57.7246 282.895 54.3909 283.686 48.9101H286.511C285.438 54.73 281.369 60.2673 272.103 60.2673ZM260.18 43.3727H283.742C283.403 35.4057 279.166 31.9025 272.103 31.9025C263.514 31.9025 260.576 37.4399 260.18 43.3727Z" fill="#051C36"/>
<path d="M238.908 59.4198L225.46 30.1509H228.568L240.264 56.1426H240.377L252.073 30.1509H255.181L241.733 59.4198H238.908Z" fill="#051C36"/>
<path d="M208.867 60.2673C196.945 60.2673 194.12 51.5093 194.12 44.7853C194.12 38.1179 196.945 29.3599 208.867 29.3599C218.981 29.3599 223.276 35.6318 223.276 45.0678V45.5764H196.889C197.115 51.7918 199.94 57.7246 208.867 57.7246C215.704 57.7246 219.659 54.3909 220.451 48.9101H223.276C222.202 54.73 218.134 60.2673 208.867 60.2673ZM196.945 43.3727H220.507C220.168 35.4057 215.93 31.9025 208.867 31.9025C200.279 31.9025 197.341 37.4399 196.945 43.3727Z" fill="#051C36"/>
<path d="M176.778 60.2673C166.89 60.2673 162.143 56.8206 162.03 49.5881H164.855C165.025 55.3515 168.585 57.8377 176.608 57.8377C183.671 57.8377 187.231 55.747 187.231 51.4527C187.231 48.232 185.14 46.8195 179.264 46.0849L173.105 45.2939C165.929 44.3898 163.273 41.9602 163.273 37.2704C163.273 31.9025 167.342 29.3599 175.704 29.3599C185.366 29.3599 189.265 32.6371 189.774 40.3781H186.948C186.553 34.1062 183.784 31.7895 175.93 31.7895C169.263 31.7895 166.099 33.5411 166.099 37.3269C166.099 40.4346 167.737 41.8471 173.613 42.6382L179.377 43.4292C187.231 44.5028 190 46.4804 190 51.2267C190 57.3291 185.649 60.2673 176.778 60.2673Z" fill="#051C36"/>
<path d="M372.826 106.578V66.1784H375.651V84.0335H375.764C376.386 79.3437 381.245 76.5185 388.195 76.5185C396.783 76.5185 400.343 80.2478 400.343 89.1188V106.578H397.518V89.1188C397.518 81.8299 394.919 79.2307 387.743 79.2307C379.606 79.2307 375.651 82.8469 375.651 90.2489V106.578H372.826Z" fill="#051C36"/>
<path d="M352.612 107.426C340.69 107.426 337.751 98.668 337.751 91.944C337.751 85.2766 340.69 76.5186 352.612 76.5186C362.895 76.5186 366.173 83.0165 367.02 88.7798H364.195C363.574 83.2425 360.353 79.0612 352.612 79.0612C343.345 79.0612 340.633 85.5026 340.633 91.944C340.633 98.4419 343.345 104.883 352.612 104.883C359.449 104.883 363.404 101.55 364.195 96.0688H367.02C365.947 101.889 361.878 107.426 352.612 107.426Z" fill="#051C36"/>
<path d="M319.854 106.578V77.3096H322.679V84.09H322.792C322.962 81.4909 325.504 76.5186 330.59 76.5186C332.398 76.5186 333.754 76.6316 334.658 77.0271V79.8523C334.149 79.5132 332.341 79.2307 330.477 79.2307C326.069 79.2307 322.679 84.3726 322.679 90.2489V106.578H319.854Z" fill="#051C36"/>
<path d="M308.955 106.578V99.9675C307.882 104.431 302.627 107.426 295.734 107.426C287.936 107.426 283.077 103.753 283.077 97.4814C283.077 91.153 288.614 87.5933 297.372 87.5933C302.231 87.5933 307.204 88.7798 308.955 90.1924V87.7628C308.955 81.3779 306.187 79.2307 297.316 79.2307C289.292 79.2307 286.41 81.1519 286.41 86.1807H283.585C283.585 79.6828 288.049 76.5186 297.598 76.5186C307.599 76.5186 311.781 79.8523 311.781 87.4802V106.578H308.955ZM285.902 97.1424C285.902 102.228 289.518 104.714 296.807 104.714C304.096 104.714 307.769 102.228 308.955 96.2948V92.283C306.695 90.927 302.457 90.0229 297.542 90.0229C289.857 90.0229 285.902 92.17 285.902 97.1424Z" fill="#051C36"/>
<path d="M262.888 107.426C250.966 107.426 248.14 98.668 248.14 91.944C248.14 85.2766 250.966 76.5186 262.888 76.5186C273.002 76.5186 277.296 82.7904 277.296 92.2265V92.7351H250.909C251.135 98.9505 253.96 104.883 262.888 104.883C269.725 104.883 273.68 101.55 274.471 96.0688H277.296C276.223 101.889 272.154 107.426 262.888 107.426ZM250.966 90.5314H274.528C274.188 82.5644 269.951 79.0612 262.888 79.0612C254.299 79.0612 251.361 84.5986 250.966 90.5314Z" fill="#051C36"/>
<path d="M230.798 107.426C220.91 107.426 216.164 103.979 216.051 96.7468H218.876C219.045 102.51 222.605 104.996 230.629 104.996C237.692 104.996 241.251 102.906 241.251 98.6114C241.251 95.3907 239.161 93.9782 233.284 93.2436L227.125 92.4526C219.949 91.5485 217.294 89.1189 217.294 84.4291C217.294 79.0612 221.362 76.5186 229.725 76.5186C239.387 76.5186 243.285 79.7958 243.794 87.5368H240.969C240.573 81.2649 237.805 78.9482 229.951 78.9482C223.283 78.9482 220.119 80.6998 220.119 84.4856C220.119 87.5933 221.758 89.0058 227.634 89.7969L233.397 90.5879C241.251 91.6615 244.02 93.6391 244.02 98.3854C244.02 104.488 239.669 107.426 230.798 107.426Z" fill="#051C36"/>
<path d="M197.5 107.426C185.578 107.426 182.753 98.668 182.753 91.944C182.753 85.2766 185.578 76.5186 197.5 76.5186C207.615 76.5186 211.909 82.7904 211.909 92.2265V92.7351H185.522C185.748 98.9505 188.573 104.883 197.5 104.883C204.337 104.883 208.293 101.55 209.084 96.0688H211.909C210.835 101.889 206.767 107.426 197.5 107.426ZM185.578 90.5314H209.14C208.801 82.5644 204.563 79.0612 197.5 79.0612C188.912 79.0612 185.974 84.5986 185.578 90.5314Z" fill="#051C36"/>
<path d="M164.855 106.578V77.3096H167.681V84.09H167.794C167.963 81.4909 170.506 76.5186 175.591 76.5186C177.399 76.5186 178.755 76.6316 179.659 77.0271V79.8523C179.151 79.5132 177.343 79.2307 175.478 79.2307C171.071 79.2307 167.681 84.3726 167.681 90.2489V106.578H164.855Z" fill="#051C36"/>
</g>
<defs>
<clipPath id="clip0_81_164">
<rect width="400" height="130.514" fill="white" transform="translate(0.342773 0.743164)"/>
</clipPath>
</defs>
</svg>
